<svg version="1.1" xmlns="http://www.w3.org/2000/svg" xmlns:xlink="http://www.w3.org/1999/xlink" width="365" height="520"><defs/><g><g transform="translate(-142,-134) scale(1,1)"><rect fill="#C0C0C0" stroke="none" x="231" y="151" width="188.18994140625" height="48" opacity="0.2"/></g><g transform="translate(-142,-134) scale(1,1)"><rect fill="#ffffff" stroke="none" x="224" y="144" width="188.18994140625" height="48"/></g><g transform="translate(-142,-134) scale(1,1)"><path fill="none" stroke="#000000" d="M 224 144 L 412.18994140625 144 L 412.18994140625 192 L 224 192 L 224 144 Z Z" stroke-miterlimit="10"/></g><g transform="translate(-142,-134) scale(1,1)"><g><path fill="none" stroke="none"/><text fill="#000000" stroke="none" font-family="Arial" font-size="13px" font-style="normal" font-weight="normal" text-decoration="none" x="285.9345703125" y="161.5">«interface»</text></g></g><g transform="translate(-142,-134) scale(1,1)"><g><path fill="none" stroke="none"/><text fill="#000000" stroke="none" font-family="Arial" font-size="13px" font-style="normal" font-weight="bold" text-decoration="none" x="250.171875" y="176.5">CovidContactsManager</text></g></g><g transform="translate(-142,-134) scale(1,1)"><rect fill="#C0C0C0" stroke="none" x="215" y="247" width="222.8798828125" height="68" opacity="0.2"/></g><g transform="translate(-142,-134) scale(1,1)"><rect fill="#ffffff" stroke="none" x="208" y="240" width="222.8798828125" height="68"/></g><g transform="translate(-142,-134) scale(1,1)"><path fill="none" stroke="#000000" d="M 208 240 L 430.8798828125 240 L 430.8798828125 308 L 208 308 L 208 240 Z Z" stroke-miterlimit="10"/></g><g transform="translate(-142,-134) scale(1,1)"><path fill="none" stroke="#000000" d="M 208 265 L 430.8798828125 265" stroke-miterlimit="10"/></g><g transform="translate(-142,-134) scale(1,1)"><path fill="none" stroke="#000000" d="M 208 275 L 430.8798828125 275" stroke-miterlimit="10"/></g><g transform="translate(-142,-134) scale(1,1)"><g><path fill="none" stroke="none"/><text fill="#000000" stroke="none" font-family="Arial" font-size="13px" font-style="normal" font-weight="bold" text-decoration="none" x="235.263671875" y="259.5">CovidContactsManagerClass</text></g></g><g transform="translate(-142,-134) scale(1,1)"><path fill="none" stroke="#000000" d="M 319 239 L 318 193" stroke-miterlimit="10" stroke-dasharray="3"/></g><g transform="translate(-142,-134) scale(1,1)"><path fill="#FFFFFF" stroke="none" d="M 326.85879789915407 213.13756936131924 L 318 193 L 310.0247042156497 213.50352791965628"/></g><g transform="translate(-142,-134) scale(1,1)"><path fill="none" stroke="#000000" d="M 326.85879789915407 213.13756936131924 L 318 193 L 310.0247042156497 213.50352791965628 L 326.85879789915407 213.13756936131924" stroke-miterlimit="10"/></g><g transform="translate(-142,-134) scale(1,1)"><rect fill="#C0C0C0" stroke="none" x="167" y="359" width="73.32080078125" height="48" opacity="0.2"/></g><g transform="translate(-142,-134) scale(1,1)"><rect fill="#ffffff" stroke="none" x="160" y="352" width="73.32080078125" height="48"/></g><g transform="translate(-142,-134) scale(1,1)"><path fill="none" stroke="#000000" d="M 160 352 L 233.32080078125 352 L 233.32080078125 400 L 160 400 L 160 352 Z Z" stroke-miterlimit="10"/></g><g transform="translate(-142,-134) scale(1,1)"><g><path fill="none" stroke="none"/><text fill="#000000" stroke="none" font-family="Arial" font-size="13px" font-style="normal" font-weight="normal" text-decoration="none" x="164.5" y="369.5">«interface»</text></g></g><g transform="translate(-142,-134) scale(1,1)"><g><path fill="none" stroke="none"/><text fill="#000000" stroke="none" font-family="Arial" font-size="13px" font-style="normal" font-weight="bold" text-decoration="none" x="178.594970703125" y="384.5">Group</text></g></g><g transform="translate(-142,-134) scale(1,1)"><rect fill="#C0C0C0" stroke="none" x="383" y="359" width="73.32080078125" height="48" opacity="0.2"/></g><g transform="translate(-142,-134) scale(1,1)"><rect fill="#ffffff" stroke="none" x="376" y="352" width="73.32080078125" height="48"/></g><g transform="translate(-142,-134) scale(1,1)"><path fill="none" stroke="#000000" d="M 376 352 L 449.32080078125 352 L 449.32080078125 400 L 376 400 L 376 352 Z Z" stroke-miterlimit="10"/></g><g transform="translate(-142,-134) scale(1,1)"><g><path fill="none" stroke="none"/><text fill="#000000" stroke="none" font-family="Arial" font-size="13px" font-style="normal" font-weight="normal" text-decoration="none" x="380.5" y="369.5">«interface»</text></g></g><g transform="translate(-142,-134) scale(1,1)"><g><path fill="none" stroke="none"/><text fill="#000000" stroke="none" font-family="Arial" font-size="13px" font-style="normal" font-weight="bold" text-decoration="none" x="398.936767578125" y="384.5">User</text></g></g><g transform="translate(-142,-134) scale(1,1)"><path fill="none" stroke="#000000" d="M 351 309 L 389 351" stroke-miterlimit="10"/></g><g transform="translate(-142,-134) scale(1,1)"><path fill="none" stroke="#000000" d="M 379.06021800191127 346.28823453146583 L 389 351 L 385.3032340597966 340.63979143147435" stroke-miterlimit="10"/></g><g transform="translate(-142,-134) scale(1,1)"><path fill="none" stroke="#000000" d="M 277 309 L 226 351" stroke-miterlimit="10"/></g><g transform="translate(-142,-134) scale(1,1)"><path fill="none" stroke="#000000" d="M 231.16885502879833 341.2900598513036 L 226 351 L 236.52089696589223 347.78896791777476" stroke-miterlimit="10"/></g><g transform="translate(-142,-134) scale(1,1)"><rect fill="#C0C0C0" stroke="none" x="383" y="447" width="72.59716796875" height="44" opacity="0.2"/></g><g transform="translate(-142,-134) scale(1,1)"><rect fill="#ffffff" stroke="none" x="376" y="440" width="72.59716796875" height="44"/></g><g transform="translate(-142,-134) scale(1,1)"><path fill="none" stroke="#000000" d="M 376 440 L 448.59716796875 440 L 448.59716796875 484 L 376 484 L 376 440 Z Z" stroke-miterlimit="10"/></g><g transform="translate(-142,-134) scale(1,1)"><path fill="none" stroke="#000000" d="M 376 465 L 448.59716796875 465" stroke-miterlimit="10"/></g><g transform="translate(-142,-134) scale(1,1)"><path fill="none" stroke="#000000" d="M 376 475 L 448.59716796875 475" stroke-miterlimit="10"/></g><g transform="translate(-142,-134) scale(1,1)"><g><path fill="none" stroke="none"/><text fill="#000000" stroke="none" font-family="Arial" font-size="13px" font-style="normal" font-weight="bold" text-decoration="none" x="382.32177734375" y="459.5">UserClass</text></g></g><g transform="translate(-142,-134) scale(1,1)"><path fill="none" stroke="#000000" d="M 412 439 L 412 401" stroke-miterlimit="10" stroke-dasharray="3"/></g><g transform="translate(-142,-134) scale(1,1)"><path fill="#FFFFFF" stroke="none" d="M 420.419035512032 421.3253497152483 L 412 401 L 403.580964487968 421.3253497152483"/></g><g transform="translate(-142,-134) scale(1,1)"><path fill="none" stroke="#000000" d="M 420.419035512032 421.3253497152483 L 412 401 L 403.580964487968 421.3253497152483 L 420.419035512032 421.3253497152483" stroke-miterlimit="10"/></g><g transform="translate(-142,-134) scale(1,1)"><path fill="none" stroke="#000000" d="M 375 447 L 234 391" stroke-miterlimit="10"/></g><g transform="translate(-142,-134) scale(1,1)"><path fill="none" stroke="#000000" d="M 244.99882109873042 390.8389582721079 L 234 391 L 241.89121468181645 398.6634672861235" stroke-miterlimit="10"/></g><g transform="translate(-142,-134) scale(1,1)"><rect fill="#C0C0C0" stroke="none" x="159" y="447" width="82.68359375" height="44" opacity="0.2"/></g><g transform="translate(-142,-134) scale(1,1)"><rect fill="#ffffff" stroke="none" x="152" y="440" width="82.68359375" height="44"/></g><g transform="translate(-142,-134) scale(1,1)"><path fill="none" stroke="#000000" d="M 152 440 L 234.68359375 440 L 234.68359375 484 L 152 484 L 152 440 Z Z" stroke-miterlimit="10"/></g><g transform="translate(-142,-134) scale(1,1)"><path fill="none" stroke="#000000" d="M 152 465 L 234.68359375 465" stroke-miterlimit="10"/></g><g transform="translate(-142,-134) scale(1,1)"><path fill="none" stroke="#000000" d="M 152 475 L 234.68359375 475" stroke-miterlimit="10"/></g><g transform="translate(-142,-134) scale(1,1)"><g><path fill="none" stroke="none"/><text fill="#000000" stroke="none" font-family="Arial" font-size="13px" font-style="normal" font-weight="bold" text-decoration="none" x="159.023193359375" y="459.5">GroupClass</text></g></g><g transform="translate(-142,-134) scale(1,1)"><path fill="none" stroke="#000000" d="M 194 439 L 195 401" stroke-miterlimit="10" stroke-dasharray="3"/></g><g transform="translate(-142,-134) scale(1,1)"><path fill="#FFFFFF" stroke="none" d="M 202.88142933348237 421.53979239576984 L 195 401 L 186.04918563993525 421.0968386143607"/></g><g transform="translate(-142,-134) scale(1,1)"><path fill="none" stroke="#000000" d="M 202.88142933348237 421.53979239576984 L 195 401 L 186.04918563993525 421.0968386143607 L 202.88142933348237 421.53979239576984" stroke-miterlimit="10"/></g><g transform="translate(-142,-134) scale(1,1)"><path fill="none" stroke="#000000" d="M 236 445 L 375 391" stroke-miterlimit="10"/></g><g transform="translate(-142,-134) scale(1,1)"><path fill="none" stroke="#000000" d="M 367.0514227883843 398.6039542549244 L 375 391 L 364.0026995353923 390.75631477037103" stroke-miterlimit="10"/></g><g transform="translate(-142,-134) scale(1,1)"><path fill="none" stroke="#000000" d="M 450 463 L 496 464 L 496 376 L 450 376" stroke-miterlimit="10"/></g><g transform="translate(-142,-134) scale(1,1)"><path fill="none" stroke="#000000" d="M 460.16267485762415 371.790482243984 L 450 376 L 460.16267485762415 380.209517756016" stroke-miterlimit="10"/></g><g transform="translate(-142,-134) scale(1,1)"><rect fill="#C0C0C0" stroke="none" x="279" y="519" width="73.32080078125" height="48" opacity="0.2"/></g><g transform="translate(-142,-134) scale(1,1)"><rect fill="#ffffff" stroke="none" x="272" y="512" width="73.32080078125" height="48"/></g><g transform="translate(-142,-134) scale(1,1)"><path fill="none" stroke="#000000" d="M 272 512 L 345.32080078125 512 L 345.32080078125 560 L 272 560 L 272 512 Z Z" stroke-miterlimit="10"/></g><g transform="translate(-142,-134) scale(1,1)"><g><path fill="none" stroke="none"/><text fill="#000000" stroke="none" font-family="Arial" font-size="13px" font-style="normal" font-weight="normal" text-decoration="none" x="276.5" y="529.5">«interface»</text></g></g><g transform="translate(-142,-134) scale(1,1)"><g><path fill="none" stroke="none"/><text fill="#000000" stroke="none" font-family="Arial" font-size="13px" font-style="normal" font-weight="bold" text-decoration="none" x="295.654052734375" y="544.5">Post</text></g></g><g transform="translate(-142,-134) scale(1,1)"><rect fill="#C0C0C0" stroke="none" x="279" y="607" width="71.86083984375" height="44" opacity="0.2"/></g><g transform="translate(-142,-134) scale(1,1)"><rect fill="#ffffff" stroke="none" x="272" y="600" width="71.86083984375" height="44"/></g><g transform="translate(-142,-134) scale(1,1)"><path fill="none" stroke="#000000" d="M 272 600 L 343.86083984375 600 L 343.86083984375 644 L 272 644 L 272 600 Z Z" stroke-miterlimit="10"/></g><g transform="translate(-142,-134) scale(1,1)"><path fill="none" stroke="#000000" d="M 272 625 L 343.86083984375 625" stroke-miterlimit="10"/></g><g transform="translate(-142,-134) scale(1,1)"><path fill="none" stroke="#000000" d="M 272 635 L 343.86083984375 635" stroke-miterlimit="10"/></g><g transform="translate(-142,-134) scale(1,1)"><g><path fill="none" stroke="none"/><text fill="#000000" stroke="none" font-family="Arial" font-size="13px" font-style="normal" font-weight="bold" text-decoration="none" x="278.6708984375" y="619.5">PostClass</text></g></g><g transform="translate(-142,-134) scale(1,1)"><path fill="none" stroke="#000000" d="M 307 599 L 308 561" stroke-miterlimit="10" stroke-dasharray="3"/></g><g transform="translate(-142,-134) scale(1,1)"><path fill="#FFFFFF" stroke="none" d="M 315.8814293334824 581.5397923957698 L 308 561 L 299.0491856399352 581.0968386143606"/></g><g transform="translate(-142,-134) scale(1,1)"><path fill="none" stroke="#000000" d="M 315.8814293334824 581.5397923957698 L 308 561 L 299.0491856399352 581.0968386143606 L 315.8814293334824 581.5397923957698" stroke-miterlimit="10"/></g><g transform="translate(-142,-134) scale(1,1)"><path fill="none" stroke="#000000" d="M 229 485 L 271 512" stroke-miterlimit="10"/></g><g transform="translate(-142,-134) scale(1,1)"><path fill="none" stroke="#000000" d="M 260.1750479751815 510.04541215076495 L 271 512 L 264.7277053398507 502.96350069461283" stroke-miterlimit="10"/></g><g transform="translate(-142,-134) scale(1,1)"><path fill="none" stroke="#000000" d="M 380 485 L 343 511" stroke-miterlimit="10"/></g><g transform="translate(-142,-134) scale(1,1)"><path fill="none" stroke="#000000" d="M 348.894772825058 501.7128231770383 L 343 511 L 353.7352595477475 508.6012081285579" stroke-miterlimit="10"/></g></g></svg>